<svg width="5" height="10" viewBox="0 0 5 10" fill="none" xmlns="http://www.w3.org/2000/svg">
<path d="M0.71161 0.133201L4.87781 4.67843C4.91655 4.72064 4.94728 4.77077 4.96824 4.82595C4.98921 4.88112 5 4.94027 5 5C5 5.05973 4.98921 5.11888 4.96824 5.17406C4.94728 5.22923 4.91655 5.27936 4.87781 5.32157L0.711611 9.8668C0.633436 9.95209 0.527408 10 0.416852 10C0.306296 10 0.200268 9.95209 0.122093 9.8668C0.0439179 9.78151 -1.46067e-08 9.66584 -1.98789e-08 9.54522C-2.51511e-08 9.42461 0.0439179 9.30894 0.122093 9.22365L3.99406 5L0.122092 0.776351C0.0833842 0.734121 0.0526791 0.683987 0.0317304 0.628811C0.0107816 0.573635 -4.14625e-07 0.514498 -4.17235e-07 0.454776C-4.19846e-07 0.395054 0.0107816 0.335917 0.0317303 0.280741C0.0526791 0.225565 0.0833841 0.17543 0.122092 0.133201C0.160801 0.090971 0.206754 0.0574732 0.257329 0.0346184C0.307904 0.0117636 0.36211 -1.58283e-08 0.416851 -1.82212e-08C0.471593 -2.0614e-08 0.525799 0.0117635 0.576374 0.0346184C0.626948 0.0574732 0.672902 0.090971 0.71161 0.133201Z" fill="#999999"/>
</svg>
